<?xml version="1.0" standalone="no"?>
<!DOCTYPE svg PUBLIC "-//W3C//DTD SVG 20010904//EN"
 "http://www.w3.org/TR/2001/REC-SVG-20010904/DTD/svg10.dtd">
<svg version="1.0" xmlns="http://www.w3.org/2000/svg"
 width="128.000000pt" height="128.000000pt" viewBox="0 0 128.000000 128.000000"
 preserveAspectRatio="xMidYMid meet">
<metadata>
Created by potrace 1.16, written by Peter Selinger 2001-2019
</metadata>
<g transform="translate(0.000000,128.000000) scale(0.100000,-0.100000)"
fill="#000000" stroke="none">
<path d="M503 1259 c-115 -44 -214 -173 -229 -298 -4 -38 -14 -64 -30 -81 -48
-52 -56 -110 -23 -176 22 -48 82 -84 136 -84 25 0 33 -6 43 -30 7 -17 35 -50
61 -74 27 -24 49 -51 49 -59 0 -22 -46 -35 -140 -39 -65 -3 -99 -10 -142 -30
-128 -59 -219 -188 -226 -320 l-4 -68 278 2 c271 3 279 4 279 23 0 19 -8 20
-249 23 l-248 2 6 42 c16 99 110 209 212 247 30 12 63 21 73 21 12 0 41 -35
85 -100 41 -62 73 -100 83 -100 10 0 41 23 70 52 l53 52 53 -52 c29 -29 60
-52 70 -52 10 0 42 38 83 100 44 65 73 100 85 100 10 0 43 -9 73 -21 102 -38
196 -148 212 -247 l6 -42 -248 -2 c-241 -3 -249 -4 -249 -23 0 -19 8 -20 279
-23 l278 -2 -4 68 c-7 132 -98 261 -226 320 -43 20 -77 27 -142 30 -94 4 -140
17 -140 39 0 8 22 35 49 59 26 24 54 57 61 74 10 24 18 30 43 30 54 0 114 36
136 84 33 66 25 124 -23 176 -16 17 -26 43 -30 81 -16 127 -114 255 -231 298
-75 28 -199 28 -272 0z m272 -66 c83 -43 155 -140 170 -230 6 -37 5 -41 -12
-37 -13 4 -22 21 -30 55 -16 64 -55 119 -117 161 -47 32 -52 33 -146 33 -94 0
-99 -1 -146 -33 -62 -42 -101 -97 -117 -161 -8 -34 -17 -51 -30 -55 -17 -4
-18 0 -12 37 19 110 108 213 215 248 46 15 181 4 225 -18z m-21 -103 c49 -33
88 -94 94 -147 6 -53 -3 -55 -87 -11 l-61 31 -48 -26 c-61 -33 -135 -50 -184
-42 -34 6 -38 10 -38 36 0 64 58 145 125 176 49 22 154 13 199 -17z m33 -234
l63 -21 0 -87 0 -88 -60 0 c-39 0 -62 5 -67 14 -22 36 -102 48 -141 20 -32
-22 -43 -57 -31 -94 14 -38 36 -50 94 -50 36 0 51 6 71 25 17 17 36 25 61 25
l36 0 -24 -26 c-74 -81 -211 -84 -292 -6 -51 48 -67 92 -67 184 l0 83 78 1
c61 0 88 6 132 26 30 15 62 24 70 20 8 -3 43 -15 77 -26z m-417 -81 c0 -90 -1
-95 -21 -95 -29 0 -89 62 -89 93 0 42 53 94 98 96 9 1 12 -24 12 -94z m617 62
c12 -12 25 -37 29 -54 6 -28 2 -37 -29 -68 -19 -19 -44 -35 -56 -35 -20 0 -21
5 -21 96 l0 96 28 -7 c15 -3 37 -16 49 -28z"/>
</g>
</svg>
